<?xml version="1.0" standalone="no"?>
<!DOCTYPE svg PUBLIC "-//W3C//DTD SVG 20010904//EN"
 "http://www.w3.org/TR/2001/REC-SVG-20010904/DTD/svg10.dtd">
<svg version="1.0" xmlns="http://www.w3.org/2000/svg"
 width="260.000000pt" height="260.000000pt" viewBox="0 0 260.000000 260.000000"
 preserveAspectRatio="xMidYMid meet">
<metadata>
Created by potrace 1.14, written by Peter Selinger 2001-2017
</metadata>
<g transform="translate(0.000000,260.000000) scale(0.100000,-0.100000)"
fill="#000000" stroke="none">
<path d="M1157 2554 c-1 -1 -21 -4 -44 -7 -98 -14 -258 -60 -322 -93 -14 -8
-29 -14 -33 -14 -16 0 -160 -89 -228 -140 -216 -165 -356 -364 -439 -624 -134
-417 -39 -877 249 -1210 36 -41 116 -119 160 -155 14 -11 30 -25 36 -30 25
-21 173 -109 219 -130 174 -81 345 -119 543 -118 81 0 173 6 210 14 37 8 76
15 87 17 11 2 20 4 20 5 0 2 8 5 50 14 36 9 139 50 162 64 12 8 23 13 25 12 4
-4 148 81 179 105 14 12 36 28 49 36 35 24 162 150 206 205 21 28 42 51 47 53
4 2 7 7 7 12 0 11 62 113 73 121 5 3 9 10 9 15 1 5 13 36 28 69 29 64 67 176
75 216 6 31 14 68 21 99 4 14 8 93 10 175 3 182 -21 342 -71 460 -7 17 -24 58
-39 93 -14 34 -41 87 -61 117 -19 31 -35 59 -35 64 0 5 -3 11 -7 13 -5 2 -27
28 -49 58 -53 70 -113 131 -189 195 -33 28 -61 53 -63 58 -2 4 -10 7 -17 7 -8
0 -20 6 -27 14 -14 13 -155 96 -164 96 -3 0 -26 9 -51 21 -136 62 -325 98
-506 97 -64 -1 -118 -2 -120 -4z"/>
</g>
</svg>
